PathFileType	4	(X/Y/Z)	71_2_46_p0_0-291_filt_butterworth.trc
DataRate	CameraRate	NumFrames	NumMarkers	Units	OrigDataRate	OrigDataStartFrame	OrigNumFrames
45.0	45.0	6	27	m	45.0	218	291
Frame#	Time	RHip			RKnee			RAnkle			RBigToe			RSmallToe			RHeel			LHip			LKnee			LAnkle			LBigToe			LSmallToe			LHeel			Neck			Head			Nose			RShoulder			RElbow			RWrist			RThumb			RIndex			RPinky			LShoulder			LElbow			LWrist			LThumb			LIndex			LPinky			
		X1	Y1	Z1	X2	Y2	Z2	X3	Y3	Z3	X4	Y4	Z4	X5	Y5	Z5	X6	Y6	Z6	X7	Y7	Z7	X8	Y8	Z8	X9	Y9	Z9	X10	Y10	Z10	X11	Y11	Z11	X12	Y12	Z12	X13	Y13	Z13	X14	Y14	Z14	X15	Y15	Z15	X16	Y16	Z16	X17	Y17	Z17	X18	Y18	Z18	X19	Y19	Z19	X20	Y20	Z20	X21	Y21	Z21	X22	Y22	Z22	X23	Y23	Z23	X24	Y24	Z24	X25	Y25	Z25	X26	Y26	Z26	X27	Y27	Z27	
218	4.844444444444444	0.3969343469371149	0.31539455197029526	-0.2127175377930338	0.4196512877154501	0.5343399039744906	0.2078959803252973	0.42285499862618925	0.6711418211672127	0.6074024278407637	0.4128633298431671	0.4950730203483177	0.6558528205071547	0.4741619717144082	0.5273448957472702	0.6585863889949782	0.40737348416664293	0.6944955633782781	0.6317063285353959	0.20771244088786278	0.3576507527052553	-0.21177875180640665	0.2272138000899218	0.5360310912554	0.2194923232327228	0.22946043001792701	0.6781992251548273	0.6154068628270655	0.2627054109724294	0.5253182864548872	0.6646086302386753	0.19130769303610792	0.5369209629702264	0.6426244696806692	0.23959025434224662	0.7279862497717784	0.6443364401707574	0.2965746623620587	0.2150250806068433	-0.6898251805694848	0.28754012515996885	0.11754178952571841	-0.918944578085813	0.27009294375650905	0.09400427731158056	-0.7860685099933106	0.4318506738667022	0.24558448834373256	-0.5884617591868694	0.4737012874090576	0.3276157286051171	-0.3247605119778739	0.45569921282142944	0.3484870374623321	-0.07358996923129335	0.4221522018435902	0.3094891951318356	0.04457898461873692	0.44281357090307066	0.3234555064505386	0.06688128403142507	0.46117223347260267	0.4006544498911315	0.05362716374591944	0.14308513216777496	0.27338877838767267	-0.6037676057694207	0.13639515067628422	0.328753004289543	-0.35668931331735	0.12940250592052951	0.3738216355774465	-0.1045243124869599	0.15814920682739686	0.37552394950480533	-0.005846876918399632	0.13636574133290072	0.3781514180102618	0.012453940009580366	0.11333766070150653	0.36619655633133574	-0.007274587623081755
219	4.866666666666666	0.3947335976628391	0.31501731774987074	-0.21292463012433094	0.419786148084385	0.5342907513709987	0.20806783747967852	0.4223032706000249	0.670896331184222	0.6073472588099709	0.41295859589775535	0.49499825683605664	0.655866802884848	0.4740892664065418	0.5269573724178437	0.6585477129261128	0.4044183323557126	0.6995452106093081	0.632125601300784	0.20763165806475292	0.35821614806346047	-0.21093999723738263	0.22529965433455193	0.5365115717785534	0.22144258633805702	0.22928041217047013	0.6779461035255909	0.6152679900047496	0.2622579193620191	0.5216430205798519	0.6645034621224329	0.19109471422179533	0.5371589120705589	0.6422255334417635	0.23966195202714086	0.7277994372377792	0.6443521829874318	0.29665671924014264	0.2155656985072883	-0.6899351710913428	0.2871593868435802	0.11704367202205293	-0.9186995183058433	0.2675359480693883	0.09389695260631394	-0.7860568281705074	0.4319204941920315	0.24559438435652853	-0.588497383093296	0.473917573626629	0.32760280123875485	-0.32479741326781086	0.4556125237966804	0.34847081298328	-0.07356330416034706	0.4219008400129097	0.3088137387628802	0.042056253002399194	0.4397822642363627	0.3236643597937853	0.06401319829207867	0.4602260364679457	0.3975416586217916	0.05404111394465026	0.14204575691438287	0.2677432850915578	-0.603086967704396	0.1361902621151088	0.32829645329322754	-0.3565844173409902	0.12950728237034712	0.3730637875217829	-0.10479417761482032	0.15766989824562405	0.37699663871731387	-0.005258183287632409	0.13613916408397575	0.3782763539752404	0.01235715937692712	0.11333757284098261	0.36619222934522	-0.007270620681825452
220	4.888888888888889	0.3933558345678546	0.3144947842814861	-0.2136174115940329	0.41926110139385714	0.5331141805404704	0.20716559631977716	0.4223057153854559	0.670078176732455	0.607139941336544	0.41314661097190775	0.49443180077045684	0.656194194332138	0.47412471549852997	0.5268148170958329	0.658487539148159	0.4029692555222594	0.7064758884557019	0.632415445309972	0.20758067464436136	0.3585529109178354	-0.21135190695086026	0.22469094724114658	0.5365793718955061	0.22275873664616794	0.22914745536216796	0.6777262071990545	0.6152097855728227	0.26249001093920316	0.5211656235990096	0.6646620684975355	0.19092357738068072	0.5371991511620251	0.643215877955644	0.23971865911768264	0.7279391855270603	0.6443317302528762	0.2967428107685752	0.21574561415464	-0.6900006462886752	0.2873863540893359	0.11757692209725056	-0.918719265218475	0.26708652283834233	0.0939736122945249	-0.7860625258469784	0.43193659888473857	0.24558745498789689	-0.588535192497178	0.4738969828602744	0.32747170177559426	-0.32479391417480646	0.45571948719105565	0.3484572656725188	-0.073606524134988	0.42139182758337657	0.3077598938969406	0.03840032200184254	0.43726492181473536	0.32361060439596046	0.06308363113247353	0.45995394673944706	0.3967279427296139	0.05334197279508311	0.1413538094074917	0.2640835695358028	-0.6026281809025589	0.13601361521715366	0.3278702642923236	-0.3564729296310314	0.12907733436357968	0.3717765783787355	-0.106079044760593	0.1579609211803461	0.37616525781529103	-0.005088179992958436	0.13634711072080602	0.37854957526092786	0.012629097851335565	0.11328589726616003	0.3662630469476134	-0.007290121390217042
221	4.911111111111111	0.3932859532653602	0.3141471347458116	-0.21365415392555323	0.41733302222909513	0.5313847489349335	0.2051564296803875	0.42222751561224114	0.6701240335225154	0.607221347231137	0.41300417189824534	0.49502131354217743	0.6575973387964971	0.4742817262366804	0.5268342857054029	0.658430834967172	0.40415101552411026	0.7115674108671972	0.6324906724509649	0.20757078042775248	0.3585935371606078	-0.21213257610001268	0.22478717457834413	0.5362206669771864	0.22291879306433837	0.22916297777941283	0.6775407902447742	0.6152310563237718	0.26238538266887784	0.5215364784128889	0.6652186051607015	0.19083660314169115	0.5368744405621999	0.6436977074317652	0.23981514257924777	0.7279142818535678	0.6442368347534189	0.29689436253622126	0.2156644844015192	-0.689987460059893	0.2874586236069276	0.11777316391805677	-0.918730792664592	0.26738321682715455	0.09401749805097995	-0.7860620425439429	0.4319205811039221	0.2455823753096508	-0.58855596143467	0.4738439051360619	0.3274358203058402	-0.32468830037584995	0.45606242058848295	0.34851747291416896	-0.0737104889813291	0.42104353652041815	0.30688162113900963	0.03604752048640951	0.43637177903110486	0.3235725962672937	0.06312696685475203	0.45989529232284965	0.3966177418068172	0.05225001166139283	0.14122980061343804	0.2635290366451369	-0.6025417615660502	0.13602171540774036	0.32757701260830385	-0.35634358742537614	0.12714724734841448	0.3706276924721219	-0.10781114935468762	0.1593140164993151	0.37279145765691957	-0.0052961888964516875	0.13778520322666785	0.380145100066667	0.014113617214789577	0.11316490105256016	0.36636444589708633	-0.007279389998449023
222	4.933333333333334	0.39360166075106773	0.3140102569769532	-0.21384173049214034	0.41490463377055237	0.5297742956016218	0.20277412217239205	0.4218927499890235	0.6687245741056418	0.6069609336901428	0.41188950981296696	0.499352925251693	0.6597719316893252	0.47397425535354576	0.52687868882931	0.6584493569403149	0.4057075891057494	0.7114395275678911	0.6324107124840148	0.20753755692509368	0.35887886747369246	-0.21156667468025112	0.22498117714228244	0.536204952663121	0.22328648001523102	0.2292317015760636	0.6774066339860407	0.6152450261365561	0.26113038773803676	0.5219654008131208	0.666316215199714	0.1908105977531379	0.5365218188732389	0.6435505063637096	0.23989403802112652	0.7275783461626806	0.6441030117025008	0.2967246007098916	0.21567892614417408	-0.6899154268266618	0.28739052219061134	0.11767593986648148	-0.9187085858844337	0.26744876848931	0.09400363899633062	-0.7860678380550603	0.43190102055557117	0.2455787291307197	-0.5885610945215163	0.4740137079696014	0.32736394873566466	-0.324846396539217	0.4557901083641074	0.34865894642978745	-0.07375305057022158	0.4210201563325814	0.3065059730328272	0.03560251362357507	0.4362719658643309	0.3234940325486594	0.062266888977938334	0.45986981139735195	0.39653174940490166	0.05199122019197987	0.1413156622295628	0.2639927394220027	-0.6025747645907201	0.1362068466677293	0.32739784465352983	-0.3562326638831529	0.12407850172239147	0.3701197536763459	-0.10873843401626251	0.16164213367004843	0.3668618252768618	-0.006135335364015103	0.13985306283961102	0.38274042789254403	0.016118927217620094	0.11323395158885871	0.3662716442147688	-0.007300929656828353
223	4.955555555555556	0.39372607614054034	0.31374914492302586	-0.2159490779086583	0.413786297246198	0.5289438689372404	0.20076838590984952	0.42173372454245783	0.6631819694624597	0.6055348485915338	0.4101293533925813	0.5060954283914325	0.6613311944403713	0.47240041581581393	0.5269332861524664	0.6585669644244605	0.4061173451698116	0.7050961791240024	0.631711766065119	0.20750280386814715	0.35918789068728524	-0.2111336825107784	0.2252923381611714	0.5364077609603172	0.22448406739120974	0.229243821093707	0.6774540325773442	0.6152035805659215	0.25923427390751885	0.5227781537006443	0.6663874310724769	0.19086814952772635	0.5367293684513269	0.6434406498583662	0.23973592438255256	0.7277336201258026	0.6440492764003887	0.2955533024461242	0.21593330042285752	-0.6897786195139282	0.2873222728478476	0.11755203029646429	-0.9186989351823305	0.2673897969653495	0.09398431277134778	-0.7860735997286261	0.4318805147302448	0.24557756072684692	-0.5885748701449576	0.4743367496666241	0.3271998537462135	-0.32587913663515333	0.45351887538032953	0.34865269838344093	-0.07353599318527815	0.4211143327351613	0.3064953589547956	0.03583786862240171	0.43597248613107187	0.32325715320294235	0.06065903184452307	0.4598508847046462	0.39654296918012766	0.05243885901271167	0.14139841957753482	0.264344570239158	-0.6025682304197711	0.1358060075199325	0.32726775370839	-0.3562442655308318	0.12121257543483833	0.36892364732270033	-0.10873138046677455	0.16447245562919457	0.3582703706614179	-0.008263609287717922	0.1413503464072841	0.3824278416602112	0.015683578792369077	0.1141093948978304	0.3659434624181652	-0.007440818497218619
